<svg width="14" height="14" viewBox="0 0 14 14" fill="none" xmlns="http://www.w3.org/2000/svg">
<g clip-path="url(#clip0_68_10)">
<mask id="mask0_68_10" style="mask-type:luminance" maskUnits="userSpaceOnUse" x="0" y="0" width="14" height="14">
<path d="M14 0H0V14H14V0Z" fill="white"/>
</mask>
<g mask="url(#mask0_68_10)">
<mask id="mask1_68_10" style="mask-type:luminance" maskUnits="userSpaceOnUse" x="0" y="0" width="14" height="14">
<path d="M14 0H0V14H14V0Z" fill="white"/>
</mask>
<g mask="url(#mask1_68_10)">
<path d="M4.47984 0.839844C2.47224 0.839844 0.839844 2.47224 0.839844 4.47984V9.51984C0.839844 11.5274 2.47224 13.1598 4.47984 13.1598H9.51984C11.5274 13.1598 13.1598 11.5274 13.1598 9.51984V4.47984C13.1598 2.47224 11.5274 0.839844 9.51984 0.839844H4.47984ZM10.3598 3.07984C10.6678 3.07984 10.9198 3.33184 10.9198 3.63984C10.9198 3.94784 10.6678 4.19984 10.3598 4.19984C10.0518 4.19984 9.79984 3.94784 9.79984 3.63984C9.79984 3.33184 10.0518 3.07984 10.3598 3.07984ZM6.99984 3.91984C8.69944 3.91984 10.0798 5.30024 10.0798 6.99984C10.0798 8.69944 8.69944 10.0798 6.99984 10.0798C5.30024 10.0798 3.91984 8.69944 3.91984 6.99984C3.91984 5.30024 5.30024 3.91984 6.99984 3.91984ZM6.99984 4.47984C5.61104 4.47984 4.47984 5.61104 4.47984 6.99984C4.47984 8.38864 5.61104 9.51984 6.99984 9.51984C8.38864 9.51984 9.51984 8.38864 9.51984 6.99984C9.51984 5.61104 8.38864 4.47984 6.99984 4.47984Z" fill="#727272"/>
</g>
</g>
</g>
<defs>
<clipPath id="clip0_68_10">
<rect width="14" height="14" fill="white"/>
</clipPath>
</defs>
</svg>
