<svg width="14" height="14" viewBox="0 0 14 14" fill="none" xmlns="http://www.w3.org/2000/svg">
<path d="M12.5714 4.05953C12.4598 3.44375 11.9283 2.99531 11.3114 2.85531C10.3883 2.65953 8.67984 2.51953 6.83141 2.51953C4.98406 2.51953 3.24828 2.65953 2.32406 2.85531C1.70828 2.99531 1.17563 3.41531 1.06406 4.05953C0.951406 4.75953 0.839844 5.73953 0.839844 6.99953C0.839844 8.25953 0.951406 9.23953 1.09141 9.93953C1.20406 10.5553 1.73563 11.0037 2.35141 11.1437C3.33141 11.3395 5.01141 11.4795 6.85984 11.4795C8.70828 11.4795 10.3883 11.3395 11.3683 11.1437C11.9841 11.0037 12.5156 10.5837 12.6283 9.93953C12.7398 9.23953 12.8798 8.23109 12.9083 6.99953C12.8514 5.73953 12.7114 4.75953 12.5714 4.05953ZM5.31984 8.95953V5.03953L8.73563 6.99953L5.31984 8.95953Z" fill="#727272"/>
</svg>
